<svg width="1440" height="520" viewBox="0 0 1440 520" fill="none" xmlns="http://www.w3.org/2000/svg">
<path d="M-9.59399 1.00005C-9.59399 1.00005 364.09 125.893 236.768 291.735C109.447 457.577 818.514 478.734 998.627 223.487C1178.74 -31.759 1481 454.164 1481 454.164" stroke="#7A6FCD" stroke-opacity="0.16"/>
<path d="M-51 261.024C-51 261.024 139.465 412.534 304.051 426.866C468.638 441.198 602.17 239.185 853.708 260.341C1105.25 281.498 1438.56 519 1438.56 519" stroke="#7A6FCD" stroke-opacity="0.16"/>
<path d="M-10.6042 7.34227C-10.6042 7.34227 358.611 132.885 238.409 295.031C118.207 457.178 813.237 472.891 995.092 224.386C1176.95 -24.1184 1479.96 455.746 1479.96 455.746" stroke="#7A6FCD" stroke-opacity="0.16"/>
<path d="M-11.6145 13.6846C-11.6145 13.6846 353.132 139.876 240.05 298.327C126.967 456.778 807.96 467.049 991.557 225.286C1175.16 -16.4777 1478.93 457.328 1478.93 457.328" stroke="#7A6FCD" stroke-opacity="0.16"/>
<path d="M-12.6245 20.0263C-12.6245 20.0263 347.653 146.867 241.69 301.623C135.728 456.379 802.683 461.206 988.023 226.184C1173.36 -8.83759 1477.89 458.909 1477.89 458.909" stroke="#7A6FCD" stroke-opacity="0.16"/>
<path d="M-13.6348 26.3686C-13.6348 26.3686 342.174 153.858 243.331 304.919C144.488 455.979 797.406 455.363 984.488 227.083C1171.57 -1.19695 1476.86 460.49 1476.86 460.49" stroke="#7A6FCD" stroke-opacity="0.16"/>
<path d="M-14.6436 32.7104C-14.6436 32.7104 336.696 160.849 244.973 308.215C153.25 455.58 792.13 449.521 980.954 227.982C1169.78 6.44323 1475.82 462.071 1475.82 462.071" stroke="#7A6FCD" stroke-opacity="0.16"/>
<path d="M-15.6541 39.0525C-15.6541 39.0525 331.217 167.841 246.614 311.51C162.01 455.18 786.853 443.678 977.419 228.881C1167.98 14.0836 1474.79 463.653 1474.79 463.653" stroke="#7A6FCD" stroke-opacity="0.16"/>
<path d="M-16.6638 45.3944C-16.6638 45.3944 325.739 174.832 248.255 314.806C170.771 454.781 781.577 437.835 973.884 229.78C1166.19 21.724 1473.75 465.234 1473.75 465.234" stroke="#7A6FCD" stroke-opacity="0.16"/>
<path d="M-17.6738 51.7367C-17.6738 51.7367 320.26 181.823 249.896 318.102C179.532 454.381 776.3 431.993 970.35 230.679C1164.4 29.3647 1472.72 466.816 1472.72 466.816" stroke="#7A6FCD" stroke-opacity="0.16"/>
<path d="M-18.6829 58.0785C-18.6829 58.0785 314.782 188.814 251.538 321.398C188.294 453.981 771.024 426.15 966.816 231.577C1162.61 37.0048 1471.68 468.397 1471.68 468.397" stroke="#7A6FCD" stroke-opacity="0.16"/>
<path d="M-19.6931 64.4206C-19.6931 64.4206 309.303 195.806 253.179 324.694C197.054 453.582 765.747 420.307 963.281 232.476C1160.82 44.6453 1470.65 469.978 1470.65 469.978" stroke="#7A6FCD" stroke-opacity="0.16"/>
<path d="M-20.7036 70.7626C-20.7036 70.7626 303.824 202.797 254.819 327.99C205.814 453.183 760.47 414.465 959.746 233.375C1159.02 52.2857 1469.61 471.56 1469.61 471.56" stroke="#7A6FCD" stroke-opacity="0.16"/>
<path d="M-21.7139 77.1049C-21.7139 77.1049 298.345 209.788 256.46 331.286C214.575 452.783 755.193 408.622 956.211 234.274C1157.23 59.9264 1468.58 473.141 1468.58 473.141" stroke="#7A6FCD" stroke-opacity="0.16"/>
<path d="M-22.7234 83.4469C-22.7234 83.4469 292.866 216.779 258.101 334.582C223.336 452.384 749.916 402.779 952.677 235.173C1155.44 67.5667 1467.54 474.722 1467.54 474.722" stroke="#7A6FCD" stroke-opacity="0.16"/>
<path d="M-23.7336 89.789C-23.7336 89.789 287.387 223.771 259.742 337.878C232.096 451.984 744.639 396.937 949.142 236.072C1153.64 75.2072 1466.51 476.304 1466.51 476.304" stroke="#7A6FCD" stroke-opacity="0.16"/>
<path d="M-24.7432 96.1308C-24.7432 96.1308 281.909 230.762 261.383 341.173C240.857 451.585 739.363 391.094 945.607 236.971C1151.85 82.8474 1465.47 477.885 1465.47 477.885" stroke="#7A6FCD" stroke-opacity="0.16"/>
<path d="M-25.7532 102.473C-25.7532 102.473 276.43 237.753 263.024 344.469C249.618 451.185 734.086 385.251 942.073 237.87C1150.06 90.4879 1464.44 479.466 1464.44 479.466" stroke="#7A6FCD" stroke-opacity="0.16"/>
<path d="M-26.7627 108.815C-26.7627 108.815 270.952 244.744 264.666 347.765C258.379 450.786 728.81 379.408 938.538 238.768C1148.27 98.1282 1463.4 481.048 1463.4 481.048" stroke="#7A6FCD" stroke-opacity="0.16"/>
<path d="M-27.7732 115.157C-27.7732 115.157 265.473 251.736 266.306 351.061C267.139 450.386 723.533 373.566 935.003 239.667C1146.47 105.769 1462.37 482.629 1462.37 482.629" stroke="#7A6FCD" stroke-opacity="0.16"/>
<path d="M-28.7822 121.499C-28.7822 121.499 259.995 258.727 267.948 354.357C275.901 449.986 718.257 367.723 931.469 240.566C1144.68 113.409 1461.33 484.21 1461.33 484.21" stroke="#7A6FCD" stroke-opacity="0.16"/>
<path d="M-29.7927 127.841C-29.7927 127.841 254.516 265.718 269.588 357.653C284.661 449.587 712.98 361.881 927.934 241.465C1142.89 121.05 1460.3 485.792 1460.3 485.792" stroke="#7A6FCD" stroke-opacity="0.16"/>
<path d="M-30.8027 134.183C-30.8027 134.183 249.037 272.709 271.229 360.949C293.422 449.188 707.703 356.038 924.4 242.364C1141.1 128.69 1459.26 487.373 1459.26 487.373" stroke="#7A6FCD" stroke-opacity="0.16"/>
<path d="M-31.8123 140.525C-31.8123 140.525 243.559 279.7 272.871 364.244C302.183 448.788 702.427 350.195 920.865 243.263C1139.3 136.33 1458.23 488.954 1458.23 488.954" stroke="#7A6FCD" stroke-opacity="0.16"/>
<path d="M-32.822 146.867C-32.822 146.867 238.08 286.692 274.512 367.54C310.944 448.389 697.15 344.353 917.331 244.162C1137.51 143.971 1457.19 490.536 1457.19 490.536" stroke="#7A6FCD" stroke-opacity="0.16"/>
<path d="M-33.8318 153.209C-33.8318 153.209 232.602 293.683 276.153 370.836C319.705 447.989 691.874 338.51 913.796 245.06C1135.72 151.611 1456.16 492.117 1456.16 492.117" stroke="#7A6FCD" stroke-opacity="0.16"/>
<path d="M-34.8423 159.551C-34.8423 159.551 227.123 300.674 277.794 374.132C328.465 447.59 686.596 332.667 910.261 245.959C1133.93 159.252 1455.12 493.699 1455.12 493.699" stroke="#7A6FCD" stroke-opacity="0.16"/>
<path d="M-35.8518 165.893C-35.8518 165.893 221.644 307.665 279.435 377.428C337.226 447.19 681.32 326.825 906.727 246.858C1132.13 166.892 1454.09 495.28 1454.09 495.28" stroke="#7A6FCD" stroke-opacity="0.16"/>
<path d="M-36.8613 172.235C-36.8613 172.235 216.166 314.656 281.077 380.724C345.987 446.791 676.044 320.982 903.193 247.757C1130.34 174.532 1453.05 496.861 1453.05 496.861" stroke="#7A6FCD" stroke-opacity="0.16"/>
<path d="M-37.8713 178.577C-37.8713 178.577 210.687 321.648 282.718 384.019C354.748 446.391 670.767 315.139 899.658 248.656C1128.55 182.173 1452.02 498.442 1452.02 498.442" stroke="#7A6FCD" stroke-opacity="0.16"/>
<path d="M-38.8811 184.919C-38.8811 184.919 205.209 328.639 284.359 387.315C363.509 445.992 665.49 309.297 896.123 249.555C1126.76 189.813 1450.98 500.024 1450.98 500.024" stroke="#7A6FCD" stroke-opacity="0.16"/>
<path d="M-39.8911 191.261C-39.8911 191.261 199.73 335.63 286 390.611C372.269 445.592 660.214 303.454 892.589 250.454C1124.96 197.454 1449.95 501.605 1449.95 501.605" stroke="#7A6FCD" stroke-opacity="0.16"/>
<path d="M-40.9021 197.604C-40.9021 197.604 194.25 342.622 287.64 393.907C381.029 445.193 654.936 297.611 889.053 251.353C1123.17 205.094 1448.91 503.187 1448.91 503.187" stroke="#7A6FCD" stroke-opacity="0.16"/>
<path d="M-41.9109 203.945C-41.9109 203.945 188.773 349.613 289.282 397.203C389.791 444.793 649.66 291.769 885.52 252.251C1121.38 212.734 1447.88 504.768 1447.88 504.768" stroke="#7A6FCD" stroke-opacity="0.16"/>
<path d="M-42.9214 210.288C-42.9214 210.288 183.293 356.604 290.922 400.499C398.551 444.394 644.383 285.926 881.984 253.15C1119.59 220.375 1446.84 506.349 1446.84 506.349" stroke="#7A6FCD" stroke-opacity="0.16"/>
<path d="M-43.9312 216.63C-43.9312 216.63 177.815 363.595 292.563 403.795C407.312 443.994 639.106 280.083 878.45 254.049C1117.79 228.015 1445.8 507.931 1445.8 507.931" stroke="#7A6FCD" stroke-opacity="0.16"/>
<path d="M-44.9412 222.972C-44.9412 222.972 172.336 370.586 294.204 407.091C416.073 443.595 633.83 274.241 874.915 254.948C1116 235.656 1444.77 509.512 1444.77 509.512" stroke="#7A6FCD" stroke-opacity="0.16"/>
<path d="M-45.9504 229.313C-45.9504 229.313 166.858 377.577 295.846 410.386C424.834 443.195 628.554 268.398 871.381 255.847C1114.21 243.296 1443.73 511.093 1443.73 511.093" stroke="#7A6FCD" stroke-opacity="0.16"/>
<path d="M-46.9604 235.656C-46.9604 235.656 161.379 384.569 297.487 413.682C433.595 442.796 623.277 262.555 867.846 256.746C1112.42 250.936 1442.7 512.675 1442.7 512.675" stroke="#7A6FCD" stroke-opacity="0.16"/>
<path d="M-47.9702 241.998C-47.9702 241.998 155.901 391.56 299.128 416.978C442.355 442.396 618 256.712 864.312 257.645C1110.62 258.577 1441.66 514.256 1441.66 514.256" stroke="#7A6FCD" stroke-opacity="0.16"/>
<path d="M-48.9805 248.34C-48.9805 248.34 150.422 398.551 300.769 420.274C451.116 441.997 612.723 250.87 860.777 258.544C1108.83 266.217 1440.63 515.837 1440.63 515.837" stroke="#7A6FCD" stroke-opacity="0.16"/>
<path d="M-49.9897 254.681C-49.9897 254.681 144.944 405.542 302.411 423.57C459.877 441.597 607.447 245.027 857.243 259.442C1107.04 273.857 1439.59 517.418 1439.59 517.418" stroke="#7A6FCD" stroke-opacity="0.16"/>
</svg>
